<svg height="622" width="720" xmlns="http://www.w3.org/2000/svg">
<rect height="622" fill="#555" width="720"></rect>
<text fill="#7f7" font-family="Courier New" font-size="12" xml:space="preserve">
<tspan x="10" y="26">7 megabytes installed</tspan>
<tspan x="10" y="42"></tspan>
<tspan x="10" y="58">node_modules</tspan>
<tspan x="10" y="74">└─┬ bhttp@1.2.4 </tspan>
<tspan x="10" y="90">  ├── bluebird@2.11.0 </tspan>
<tspan x="10" y="106">  ├─┬ concat-stream@1.6.0 </tspan>
<tspan x="10" y="122">  │ ├── inherits@2.0.3 </tspan>
<tspan x="10" y="138">  │ ├─┬ readable-stream@2.2.9 </tspan>
<tspan x="10" y="154">  │ │ ├── buffer-shims@1.0.0 </tspan>
<tspan x="10" y="170">  │ │ ├── core-util-is@1.0.2 </tspan>
<tspan x="10" y="186">  │ │ ├── isarray@1.0.0 </tspan>
<tspan x="10" y="202">  │ │ ├── process-nextick-args@1.0.7 </tspan>
<tspan x="10" y="218">  │ │ ├── string_decoder@1.0.0 </tspan>
<tspan x="10" y="234">  │ │ └── util-deprecate@1.0.2 </tspan>
<tspan x="10" y="250">  │ └── typedarray@0.0.6 </tspan>
<tspan x="10" y="266">  ├─┬ debug@2.6.4 </tspan>
<tspan x="10" y="282">  │ └── ms@0.7.3 </tspan>
<tspan x="10" y="298">  ├── dev-null@0.1.1 </tspan>
<tspan x="10" y="314">  ├── errors@0.2.0 </tspan>
<tspan x="10" y="330">  ├── extend@2.0.1 </tspan>
<tspan x="10" y="346">  ├─┬ form-data2@1.0.3 </tspan>
<tspan x="10" y="362">  │ ├── combined-stream2@1.1.2 </tspan>
<tspan x="10" y="378">  │ ├── mime@1.3.4 </tspan>
<tspan x="10" y="394">  │ └── uuid@2.0.3 </tspan>
<tspan x="10" y="410">  ├── form-fix-array@1.0.0 </tspan>
<tspan x="10" y="426">  ├── lodash@2.4.2 </tspan>
<tspan x="10" y="442">  ├── stream-length@1.0.2 </tspan>
<tspan x="10" y="458">  ├── string@3.3.3 </tspan>
<tspan x="10" y="474">  ├─┬ through2-sink@1.0.0 </tspan>
<tspan x="10" y="490">  │ ├─┬ through2@0.5.1 </tspan>
<tspan x="10" y="506">  │ │ └─┬ readable-stream@1.0.34 </tspan>
<tspan x="10" y="522">  │ │   ├── isarray@0.0.1 </tspan>
<tspan x="10" y="538">  │ │   └── string_decoder@0.10.31 </tspan>
<tspan x="10" y="554">  │ └── xtend@3.0.0 </tspan>
<tspan x="10" y="570">  ├── through2-spy@1.2.0 </tspan>
<tspan x="10" y="586">  └─┬ tough-cookie@2.3.2 </tspan>
<tspan x="10" y="602">    └── punycode@1.4.1</tspan>
</text>
</svg>
